HIERARCHY
ROOT joint_Root
{
	OFFSET 0.0 0.0 0.0
	CHANNELS 6 Xposition Yposition Zposition Zrotation Xrotation Yrotation 
	JOINT Hips
	{
		OFFSET -0.726466 93.3139 -2.00062
		CHANNELS 6 Xposition Yposition Zposition Zrotation Xrotation Yrotation 
		JOINT Spine
		{
			OFFSET 15.7357 0.0 0.0
			CHANNELS 6 Xposition Yposition Zposition Zrotation Xrotation Yrotation 
			JOINT Chest
			{
				OFFSET 8.98455 -0.406207 0.0
				CHANNELS 6 Xposition Yposition Zposition Zrotation Xrotation Yrotation 
				JOINT Neck
				{
					OFFSET 16.3773 0.0 0.0
					CHANNELS 6 Xposition Yposition Zposition Zrotation Xrotation Yrotation 
					JOINT Head
					{
						OFFSET 6.45672 0.0 0.0
						CHANNELS 6 Xposition Yposition Zposition Zrotation Xrotation Yrotation 
						End Site
						{
							OFFSET 0.0 0.0 0.0
						}
					}
				}
				JOINT Shoulder_L
				{
					OFFSET 12.9942 -0.242716 4.98039
					CHANNELS 6 Xposition Yposition Zposition Zrotation Xrotation Yrotation 
					JOINT UpperArm_L
					{
						OFFSET 5.34809 0.0 0.0
						CHANNELS 6 Xposition Yposition Zposition Zrotation Xrotation Yrotation 
						JOINT LowerArm_L
						{
							OFFSET 24.3286 1.87007e-05 0.0
							CHANNELS 6 Xposition Yposition Zposition Zrotation Xrotation Yrotation 
							JOINT Hand_L
							{
								OFFSET 22.2916 0.0 0.0
								CHANNELS 6 Xposition Yposition Zposition Zrotation Xrotation Yrotation 
								End Site
								{
									OFFSET 0.0 0.0 0.0
								}
							}
						}
					}
				}
				JOINT Shoulder_R
				{
					OFFSET 12.9945 -0.242716 -4.98039
					CHANNELS 6 Xposition Yposition Zposition Zrotation Xrotation Yrotation 
					JOINT UpperArm_R
					{
						OFFSET -5.34813 0.0 0.0
						CHANNELS 6 Xposition Yposition Zposition Zrotation Xrotation Yrotation 
						JOINT LowerArm_R
						{
							OFFSET -24.3289 0.000322201 0.0
							CHANNELS 6 Xposition Yposition Zposition Zrotation Xrotation Yrotation 
							JOINT Hand_R
							{
								OFFSET -22.2915 -0.000108084 0.0
								CHANNELS 6 Xposition Yposition Zposition Zrotation Xrotation Yrotation 
								End Site
								{
									OFFSET 0.0 0.0 0.0
								}
							}
						}
					}
				}
			}
		}
		JOINT UpperLeg_L
		{
			OFFSET -2.19248 -6.46944 0.0
			CHANNELS 6 Xposition Yposition Zposition Zrotation Xrotation Yrotation 
			JOINT LowerLeg_L
			{
				OFFSET 39.0811 0.0 -1.23785e-05
				CHANNELS 6 Xposition Yposition Zposition Zrotation Xrotation Yrotation 
				JOINT Foot_L
				{
					OFFSET 40.9854 0.0 -1.26872e-05
					CHANNELS 6 Xposition Yposition Zposition Zrotation Xrotation Yrotation 
					JOINT Toes_L
					{
						OFFSET 11.7543 0.0 0.0
						CHANNELS 6 Xposition Yposition Zposition Zrotation Xrotation Yrotation 
						End Site
						{
							OFFSET 0.0 0.0 0.0
						}
					}
				}
			}
		}
		JOINT UpperLeg_R
		{
			OFFSET -2.19251 6.46944 0.0
			CHANNELS 6 Xposition Yposition Zposition Zrotation Xrotation Yrotation 
			JOINT LowerLeg_R
			{
				OFFSET -39.0811 -0.00228153 -0.0401928
				CHANNELS 6 Xposition Yposition Zposition Zrotation Xrotation Yrotation 
				JOINT Foot_R
				{
					OFFSET -40.9854 0.0 0.0
					CHANNELS 6 Xposition Yposition Zposition Zrotation Xrotation Yrotation 
					JOINT Toes_R
					{
						OFFSET -11.7543 0.0 0.0
						CHANNELS 6 Xposition Yposition Zposition Zrotation Xrotation Yrotation 
						End Site
						{
							OFFSET 0.0 0.0 0.0
						}
					}
				}
			}
		}
	}
}
MOTION
Frames:	6
Frame Time:	0.0333333
0.000000 0.000000 0.000000 0.000000 0.000000 -0.000000 -1.087760 92.085100 -3.179320 87.727600 -1.783570 5.997280 15.735700 0.000005 -0.000001 83.704900 82.945200 -83.335700 8.984550 -0.406207 -0.000000 6.265360 -1.547510 0.822350 16.377300 -0.000001 -0.000001 2.749550 -1.398490 0.873502 6.456720 -0.000001 -0.000000 3.098860 -0.156653 -0.228899 12.994200 -0.242716 4.980390 -89.987700 -0.043105 -74.073600 5.348090 -0.000007 -0.000001 -63.253800 38.313300 -17.603200 24.328600 0.000019 0.000005 -3.773060 -5.604610 -34.029500 22.291600 -0.000001 0.000005 6.800200 5.641890 -14.284600 12.994500 -0.242716 -4.980390 88.319200 5.952860 -74.201200 -5.348130 -0.000001 -0.000004 -63.480800 39.391200 -19.992600 -24.328900 0.000322 -0.000009 -3.837750 -7.120310 -28.411800 -22.291500 -0.000108 -0.000004 11.496500 5.623770 -12.882000 -2.192480 -6.469440 -0.000000 -169.439000 -19.987700 -3.092960 39.081100 -0.000007 -0.000012 -0.129730 0.289425 24.143700 40.985400 -0.000006 -0.000013 -4.883260 -0.105359 -62.861300 11.754300 -0.000000 0.000003 -0.000148 -0.001436 -16.632200 -2.192510 6.469440 -0.000001 174.678000 23.170600 179.145000 -39.081100 -0.002282 -0.040193 0.019806 -0.041284 21.771200 -40.985400 0.000008 0.000006 -0.183805 3.977720 -63.047100 -11.754300 -0.000006 -0.000006 -0.004614 -0.057684 -18.919900
0.000000 0.000000 0.000000 0.000000 0.000000 -0.000000 -1.110830 92.103900 -3.155700 87.681200 -1.918710 5.787260 15.735700 0.000005 -0.000001 83.833900 83.079600 -83.440700 8.984550 -0.406207 -0.000000 6.001400 -1.488730 0.863542 16.377300 -0.000001 -0.000001 2.650960 -1.267700 0.849644 6.456720 -0.000001 -0.000000 3.040740 -0.172416 -0.340023 12.994200 -0.242716 4.980390 -89.939300 -0.204057 -73.431000 5.348090 -0.000007 -0.000001 -62.772200 34.401500 -16.591100 24.328600 0.000019 0.000005 -3.450940 -5.240450 -33.434600 22.291600 -0.000001 0.000005 6.660040 5.639770 -14.106800 12.994500 -0.242716 -4.980390 88.343200 5.677900 -73.703500 -5.348130 -0.000001 -0.000004 -64.132400 34.324200 -19.161300 -24.328900 0.000322 -0.000009 -2.419680 -4.964900 -26.010800 -22.291500 -0.000108 -0.000004 12.398200 5.617090 -12.425300 -2.192480 -6.469440 -0.000000 -169.430000 -20.071000 -3.209360 39.081100 -0.000007 -0.000012 -0.129381 0.290212 24.028200 40.985400 -0.000006 -0.000013 -4.921630 -0.159033 -62.823800 11.754300 -0.000000 0.000003 -0.000146 -0.001422 -16.631600 -2.192510 6.469440 -0.000001 174.847000 23.205300 178.966000 -39.081100 -0.002282 -0.040193 0.023482 -0.050791 21.652600 -40.985400 0.000008 0.000006 0.009290 4.090150 -63.006100 -11.754300 -0.000006 -0.000006 -0.004483 -0.056371 -18.866400
0.000000 0.000000 0.000000 0.000000 0.000000 -0.000000 -1.118810 92.120700 -3.121760 87.698100 -2.063900 5.636490 15.735700 0.000005 -0.000001 83.948200 83.258100 -83.574300 8.984550 -0.406207 -0.000000 5.648670 -1.425000 0.817278 16.377300 -0.000001 -0.000001 2.653980 -1.078730 0.867598 6.456720 -0.000001 -0.000000 3.072430 -0.119048 -0.201104 12.994200 -0.242716 4.980390 -89.882100 -0.381818 -72.833300 5.348090 -0.000007 -0.000001 -60.981700 29.968100 -15.945300 24.328600 0.000019 0.000005 -3.281330 -5.182500 -32.404100 22.291600 -0.000001 0.000005 7.440440 5.637210 -13.898800 12.994500 -0.242716 -4.980390 88.360300 5.462800 -73.263800 -5.348130 -0.000001 -0.000004 -63.514600 28.287300 -18.871200 -24.328900 0.000322 -0.000009 -1.664970 -3.910520 -23.066700 -22.291500 -0.000108 -0.000004 13.530100 5.606010 -11.713500 -2.192480 -6.469440 -0.000000 -169.485000 -20.134100 -3.239990 39.081100 -0.000007 -0.000012 -0.127495 0.287845 23.890000 40.985400 -0.000006 -0.000013 -4.955100 -0.275921 -62.796800 11.754300 -0.000000 0.000003 -0.000141 -0.001379 -16.630000 -2.192510 6.469440 -0.000001 174.911000 23.116000 178.860000 -39.081100 -0.002282 -0.040193 0.025448 -0.056057 21.542700 -40.985400 0.000008 0.000006 0.020452 4.130460 -62.966300 -11.754300 -0.000006 -0.000006 -0.004606 -0.057604 -18.916600
0.000000 0.000000 0.000000 0.000000 0.000000 -0.000000 -1.133340 92.125000 -3.060750 87.673200 -2.091660 5.556870 15.735700 0.000005 -0.000001 84.021000 83.428000 -83.657300 8.984550 -0.406207 -0.000000 5.312130 -1.373900 0.790228 16.377300 -0.000001 -0.000001 2.584800 -0.983599 0.951597 6.456720 -0.000001 -0.000000 3.048410 -0.210762 0.004347 12.994200 -0.242716 4.980390 -89.811500 -0.590808 -72.307000 5.348090 -0.000007 -0.000001 -57.578100 25.382000 -16.178600 24.328600 0.000019 0.000005 -2.553990 -4.323450 -30.609400 22.291600 -0.000001 0.000005 7.693300 5.632770 -13.547000 12.994500 -0.242716 -4.980390 88.406600 5.204340 -72.951300 -5.348130 -0.000001 -0.000004 -61.582900 21.282500 -19.246800 -24.328900 0.000322 -0.000009 -0.847004 -2.357700 -19.733700 -22.291500 -0.000108 -0.000004 14.242500 5.582740 -10.361900 -2.192480 -6.469440 -0.000000 -169.467000 -20.130000 -3.263840 39.081100 -0.000007 -0.000012 -0.128073 0.289623 23.855500 40.985400 -0.000006 -0.000013 -4.992190 -0.337885 -62.812700 11.754300 -0.000000 0.000003 -0.000133 -0.001308 -16.627400 -2.192510 6.469440 -0.000001 174.938000 23.258900 178.864000 -39.081100 -0.002282 -0.040193 0.024202 -0.053095 21.470600 -40.985400 0.000008 0.000006 0.022761 4.266020 -62.968800 -11.754300 -0.000006 -0.000006 -0.004757 -0.059090 -18.977200
0.000000 0.000000 0.000000 0.000000 0.000000 -0.000000 -1.142670 92.129100 -3.008470 87.644100 -2.101920 5.442280 15.735700 0.000005 -0.000001 84.348200 83.600400 -83.988200 8.984550 -0.406207 -0.000000 4.975980 -1.266730 0.774202 16.377300 -0.000001 -0.000001 2.352870 -0.957604 1.049910 6.456720 -0.000001 -0.000000 2.897150 -0.400939 0.273740 12.994200 -0.242716 4.980390 -89.682800 -0.969305 -71.880000 5.348090 -0.000007 -0.000001 -53.694800 19.772500 -16.863900 24.328600 0.000019 0.000005 -1.558990 -2.898550 -28.284900 22.291600 -0.000001 0.000005 7.873480 5.625640 -13.016900 12.994500 -0.242716 -4.980390 88.508500 4.787960 -72.674600 -5.348130 -0.000001 -0.000004 -58.358800 14.045100 -20.450700 -24.328900 0.000322 -0.000009 -0.321036 -1.109340 -16.071500 -22.291500 -0.000108 -0.000004 14.085000 5.557370 -9.060660 -2.192480 -6.469440 -0.000000 -169.453000 -20.113200 -3.307770 39.081100 -0.000007 -0.000012 -0.129957 0.294395 23.818600 40.985400 -0.000006 -0.000013 -5.016220 -0.317637 -62.845400 11.754300 -0.000000 0.000003 -0.000152 -0.001471 -16.633400 -2.192510 6.469440 -0.000001 175.002000 23.278400 178.813000 -39.081100 -0.002282 -0.040193 0.024236 -0.053373 21.400400 -40.985400 0.000008 0.000006 0.027384 4.289070 -62.966700 -11.754300 -0.000006 -0.000006 -0.004634 -0.057880 -18.927900
0.000000 0.000000 0.000000 0.000000 0.000000 -0.000000 -1.142410 92.132100 -2.937320 87.637500 -2.045040 5.366650 15.735700 0.000005 -0.000001 84.473100 83.779700 -84.131000 8.984550 -0.406207 -0.000000 4.621290 -1.205430 0.732219 16.377300 -0.000001 -0.000001 1.946630 -0.932062 1.149400 6.456720 -0.000001 -0.000000 2.728030 -0.534650 0.571886 12.994200 -0.242716 4.980390 -89.499000 -1.505550 -71.592300 5.348090 -0.000007 -0.000001 -50.079500 12.257500 -17.164000 24.328600 0.000019 0.000005 -1.290460 -2.564340 -26.726400 22.291600 -0.000001 0.000005 7.786610 5.615470 -12.313100 12.994500 -0.242716 -4.980390 88.655300 4.228050 -72.338700 -5.348130 -0.000001 -0.000004 -54.803700 5.663980 -21.817600 -24.328900 0.000322 -0.000009 0.263539 1.110120 -13.426100 -22.291500 -0.000108 -0.000004 13.862000 5.532920 -7.923660 -2.192480 -6.469440 -0.000000 -169.472000 -20.070000 -3.339210 39.081100 -0.000007 -0.000012 -0.129019 0.292689 23.788400 40.985400 -0.000006 -0.000013 -5.035930 -0.352827 -62.868800 11.754300 -0.000000 0.000003 -0.000129 -0.001281 -16.626400 -2.192510 6.469440 -0.000001 175.029000 23.245200 178.816000 -39.081100 -0.002282 -0.040193 0.023692 -0.052148 21.339000 -40.985400 0.000008 0.000006 -0.017089 4.198620 -62.982500 -11.754300 -0.000006 -0.000006 -0.004491 -0.056458 -18.869900
